<svg id="visual" viewBox="0 0 960 300" width="960" height="300" xmlns="http://www.w3.org/2000/svg" xmlns:xlink="http://www.w3.org/1999/xlink" version="1.1"><rect x="0" y="0" width="960" height="300" fill="#0f0f10"></rect><path d="M0 94L22.8 95.8C45.7 97.7 91.3 101.3 137 99.2C182.7 97 228.3 89 274 91.2C319.7 93.3 365.3 105.7 411.2 110.3C457 115 503 112 548.8 107.8C594.7 103.7 640.3 98.3 686 98.2C731.7 98 777.3 103 823 104.3C868.7 105.7 914.3 103.3 937.2 102.2L960 101L960 0L937.2 0C914.3 0 868.7 0 823 0C777.3 0 731.7 0 686 0C640.3 0 594.7 0 548.8 0C503 0 457 0 411.2 0C365.3 0 319.7 0 274 0C228.3 0 182.7 0 137 0C91.3 0 45.7 0 22.8 0L0 0Z" fill="#fa7268"></path><path d="M0 77L22.8 73.8C45.7 70.7 91.3 64.3 137 67.7C182.7 71 228.3 84 274 85.2C319.7 86.3 365.3 75.7 411.2 74.2C457 72.7 503 80.3 548.8 81.7C594.7 83 640.3 78 686 76.7C731.7 75.3 777.3 77.7 823 76.3C868.7 75 914.3 70 937.2 67.5L960 65L960 0L937.2 0C914.3 0 868.7 0 823 0C777.3 0 731.7 0 686 0C640.3 0 594.7 0 548.8 0C503 0 457 0 411.2 0C365.3 0 319.7 0 274 0C228.3 0 182.7 0 137 0C91.3 0 45.7 0 22.8 0L0 0Z" fill="#f3665b"></path><path d="M0 69L22.8 68.8C45.7 68.7 91.3 68.3 137 64.8C182.7 61.3 228.3 54.7 274 53.8C319.7 53 365.3 58 411.2 61.5C457 65 503 67 548.8 64.3C594.7 61.7 640.3 54.3 686 50.3C731.7 46.3 777.3 45.7 823 48.5C868.7 51.3 914.3 57.7 937.2 60.8L960 64L960 0L937.2 0C914.3 0 868.7 0 823 0C777.3 0 731.7 0 686 0C640.3 0 594.7 0 548.8 0C503 0 457 0 411.2 0C365.3 0 319.7 0 274 0C228.3 0 182.7 0 137 0C91.3 0 45.7 0 22.8 0L0 0Z" fill="#ec594d"></path><path d="M0 58L22.8 57.2C45.7 56.3 91.3 54.7 137 53.5C182.7 52.3 228.3 51.7 274 48.7C319.7 45.7 365.3 40.3 411.2 37.5C457 34.7 503 34.3 548.8 34C594.7 33.7 640.3 33.3 686 34.7C731.7 36 777.3 39 823 41.3C868.7 43.7 914.3 45.3 937.2 46.2L960 47L960 0L937.2 0C914.3 0 868.7 0 823 0C777.3 0 731.7 0 686 0C640.3 0 594.7 0 548.8 0C503 0 457 0 411.2 0C365.3 0 319.7 0 274 0C228.3 0 182.7 0 137 0C91.3 0 45.7 0 22.8 0L0 0Z" fill="#e54c3f"></path><path d="M0 27L22.8 26.3C45.7 25.7 91.3 24.3 137 25.8C182.7 27.3 228.3 31.7 274 33C319.7 34.3 365.3 32.7 411.2 28.7C457 24.7 503 18.3 548.8 18.8C594.7 19.3 640.3 26.7 686 30.3C731.7 34 777.3 34 823 31C868.7 28 914.3 22 937.2 19L960 16L960 0L937.2 0C914.3 0 868.7 0 823 0C777.3 0 731.7 0 686 0C640.3 0 594.7 0 548.8 0C503 0 457 0 411.2 0C365.3 0 319.7 0 274 0C228.3 0 182.7 0 137 0C91.3 0 45.7 0 22.8 0L0 0Z" fill="#dd3f31"></path></svg>